# xmcd
#
# Track frame offsets: 
#        150
#        12415
#        29542
#        50287
#        74180
#        98131
#        111422
#        129570
#        149165
#        170000
#        185970
#        202172
#        224707
#        244081
#        262374
#        275953
#        295009
#        318754
#
# Disc length: 4531 seconds
#
# Revision: 0
# Processed by: cddbd v1.5.2PL0 Copyright (c) Steve Scherf et al.
# Submitted via: ExactAudioCopy v0.99pb3
#
DISCID=4011b112
DTITLE=Magnolia Mountain - Town And Country
DYEAR=2012
DGENRE=Country
TTITLE0=Black Mollie
TTITLE1=One Waking Moment
TTITLE2=Baby, Let's Pretend
TTITLE3=Set on Fire
TTITLE4=Rainmaker
TTITLE5=Shotgun Divorce (duet with Lydia Loveless)
TTITLE6=Bad for Me
TTITLE7=Just to Know What You've Been Dreaming
TTITLE8=The Devil We Know
TTITLE9=Mister Moon
TTITLE10=The Old Ways
TTITLE11=The Hand of Man
TTITLE12=All My Numbered Days
TTITLE13=Train to Glory
TTITLE14=Hard to See (Live at MOTR Pub)
TTITLE15=Don't Leave Just Now
TTITLE16=Cry for Me
TTITLE17=A Light to Bring You Home
EXTD=
EXTT0=
EXTT1=
EXTT2=
EXTT3=
EXTT4=
EXTT5=
EXTT6=
EXTT7=
EXTT8=
EXTT9=
EXTT10=
EXTT11=
EXTT12=
EXTT13=
EXTT14=
EXTT15=
EXTT16=
EXTT17=
PLAYORDER=
